<?xml version="1.0" encoding="utf-8"?>
<!-- Generator: Adobe Illustrator 19.2.0, SVG Export Plug-In . SVG Version: 6.00 Build 0)  -->
<svg version="1.1" baseProfile="tiny" xmlns="http://www.w3.org/2000/svg" xmlns:xlink="http://www.w3.org/1999/xlink" x="0px"
	 y="0px" viewBox="0 0 64 64" xml:space="preserve">
<g id="BG" display="none">
	<polygon display="inline" fill="#444444" points="-52.5,-299.7 -52.5,-90.8 -52.5,156.7 -52.5,365.6 488.5,365.6 488.5,156.7 
		488.5,-90.8 488.5,-299.7 	"/>
</g>
<g id="Colour">
</g>
<g id="Time">
</g>
<g id="Breakout">
</g>
<g id="Repro">
</g>
<g id="Python">
</g>
<g id="PaintFX">
</g>
<g id="Explode">
</g>
<g id="SoUP">
</g>
<g id="Maths">
</g>
<g id="Deformer">
</g>
<g id="Spring">
</g>
<g id="Merge">
</g>
<g id="Delay">
</g>
<g id="Symmetry">
</g>
<g id="Audio">
</g>
<g id="Trig">
</g>
<g id="Transform">
</g>
<g id="Random">
</g>
<g id="Initial_State">
</g>
<g id="Trails">
	<g>
		<g>
			<path fill="#F15A5B" d="M35.9,19c-0.8,0-1.6-0.3-2.2-0.9l-4.6-4.6c-0.2-0.2-0.5-0.3-0.8-0.3c-0.3,0-0.6,0.1-0.8,0.3L26,15
				c-0.6,0.6-1.4,0.9-2.2,0.9H15c-0.6,0-1-0.4-1-1s0.4-1,1-1h8.8c0.3,0,0.6-0.1,0.8-0.3l1.5-1.5c0.6-0.6,1.4-0.9,2.2-0.9
				c0.8,0,1.6,0.3,2.2,0.9l4.6,4.6c0.2,0.2,0.5,0.3,0.8,0.3s0.6-0.1,0.8-0.3l1.9-1.9c0.6-0.6,1.4-0.9,2.2-0.9h9.5c0.6,0,1,0.4,1,1
				s-0.4,1-1,1h-9.5c-0.3,0-0.6,0.1-0.8,0.3L38.2,18C37.6,18.6,36.8,19,35.9,19z"/>
			<path fill="#3A3A3A" d="M28.3,11.5c0.7,0,1.4,0.3,2,0.8l4.6,4.6c0.3,0.3,0.7,0.4,1.1,0.4s0.8-0.1,1.1-0.4l1.9-1.9
				c0.5-0.5,1.2-0.8,2-0.8h9.5c0.3,0,0.6,0.3,0.6,0.6s-0.3,0.6-0.6,0.6h-9.5c-0.4,0-0.8,0.2-1.1,0.4l-1.9,1.9
				c-0.5,0.5-1.2,0.8-2,0.8s-1.4-0.3-2-0.8l-4.6-4.6c-0.3-0.3-0.7-0.4-1.1-0.4s-0.8,0.1-1.1,0.4l-1.5,1.5c-0.5,0.5-1.2,0.8-2,0.8H15
				c-0.3,0-0.6-0.3-0.6-0.6s0.3-0.6,0.6-0.6h8.8c0.4,0,0.8-0.2,1.1-0.4l1.5-1.5C26.9,11.8,27.6,11.5,28.3,11.5 M28.3,10.8
				c-0.9,0-1.8,0.4-2.5,1l-1.5,1.5c-0.1,0.1-0.3,0.2-0.5,0.2H15c-0.8,0-1.4,0.6-1.4,1.4s0.6,1.4,1.4,1.4h8.8c0.9,0,1.8-0.4,2.5-1
				l1.5-1.5c0.1-0.1,0.3-0.2,0.5-0.2s0.4,0.1,0.5,0.2l4.6,4.6c0.7,0.7,1.5,1,2.5,1c0.9,0,1.8-0.4,2.5-1l1.9-1.9
				c0.1-0.1,0.3-0.2,0.5-0.2h9.5c0.8,0,1.4-0.6,1.4-1.4s-0.6-1.4-1.4-1.4h-9.5c-0.9,0-1.8,0.4-2.5,1l-1.9,1.9
				c-0.1,0.1-0.3,0.2-0.5,0.2c-0.2,0-0.4-0.1-0.5-0.2l-4.6-4.6C30.2,11.1,29.3,10.8,28.3,10.8L28.3,10.8z"/>
		</g>
		<circle fill="#BDBDBD" stroke="#3A3A3A" stroke-width="0.75" stroke-miterlimit="10" cx="15" cy="14.9" r="4.9"/>
		<g>
			<path fill="#F15A5B" d="M35.9,52.8c-0.8,0-1.6-0.3-2.2-0.9l-4.6-4.6c-0.2-0.2-0.5-0.3-0.8-0.3c-0.3,0-0.6,0.1-0.8,0.3L26,48.8
				c-0.6,0.6-1.4,0.9-2.2,0.9H15c-0.6,0-1-0.4-1-1s0.4-1,1-1h8.8c0.3,0,0.6-0.1,0.8-0.3l1.5-1.5c0.6-0.6,1.4-0.9,2.2-0.9
				s1.6,0.3,2.2,0.9l4.6,4.6c0.2,0.2,0.5,0.3,0.8,0.3s0.6-0.1,0.8-0.3l1.9-1.9c0.6-0.6,1.4-0.9,2.2-0.9h9.5c0.6,0,1,0.4,1,1
				s-0.4,1-1,1h-9.5c-0.3,0-0.6,0.1-0.8,0.3l-1.9,1.9C37.6,52.5,36.8,52.8,35.9,52.8z"/>
			<path fill="#3A3A3A" d="M28.3,45.4c0.7,0,1.4,0.3,2,0.8l4.6,4.6c0.3,0.3,0.7,0.4,1.1,0.4s0.8-0.1,1.1-0.4l1.9-1.9
				c0.5-0.5,1.2-0.8,2-0.8h9.5c0.3,0,0.6,0.3,0.6,0.6s-0.3,0.6-0.6,0.6h-9.5c-0.4,0-0.8,0.2-1.1,0.4l-1.9,1.9
				c-0.5,0.5-1.2,0.8-2,0.8s-1.4-0.3-2-0.8l-4.6-4.6c-0.3-0.3-0.7-0.4-1.1-0.4s-0.8,0.1-1.1,0.4l-1.5,1.5c-0.5,0.5-1.2,0.8-2,0.8H15
				c-0.3,0-0.6-0.3-0.6-0.6s0.3-0.6,0.6-0.6h8.8c0.4,0,0.8-0.2,1.1-0.4l1.5-1.5C26.9,45.7,27.6,45.4,28.3,45.4 M28.3,44.6
				c-0.9,0-1.8,0.4-2.5,1l-1.5,1.5c-0.1,0.1-0.3,0.2-0.5,0.2H15c-0.8,0-1.4,0.6-1.4,1.4s0.6,1.4,1.4,1.4h8.8c0.9,0,1.8-0.4,2.5-1
				l1.5-1.5c0.1-0.1,0.3-0.2,0.5-0.2s0.4,0.1,0.5,0.2l4.6,4.6c0.7,0.7,1.5,1,2.5,1c0.9,0,1.8-0.4,2.5-1l1.9-1.9
				c0.1-0.1,0.3-0.2,0.5-0.2h9.5c0.8,0,1.4-0.6,1.4-1.4s-0.6-1.4-1.4-1.4h-9.5c-0.9,0-1.8,0.4-2.5,1l-1.9,1.9
				c-0.1,0.1-0.3,0.2-0.5,0.2c-0.2,0-0.4-0.1-0.5-0.2l-4.6-4.6C30.2,45,29.3,44.6,28.3,44.6L28.3,44.6z"/>
		</g>
		<circle fill="#BDBDBD" stroke="#3A3A3A" stroke-width="0.75" stroke-miterlimit="10" cx="15" cy="48.8" r="4.9"/>
		<g>
			<path fill="#F15A5B" d="M34.2,35.6c-0.8,0-1.6-0.3-2.2-0.9l-4.6-4.6c-0.2-0.2-0.5-0.3-0.8-0.3c-0.3,0-0.6,0.1-0.8,0.3L23.9,32
				c-0.6,0.6-1.4,0.9-2.2,0.9h-9.5c-0.6,0-1-0.4-1-1s0.4-1,1-1h9.5c0.3,0,0.6-0.1,0.8-0.3l1.9-1.9c0.6-0.6,1.4-0.9,2.2-0.9
				s1.6,0.3,2.2,0.9l4.6,4.6c0.2,0.2,0.5,0.3,0.8,0.3s0.6-0.1,0.8-0.3l1.5-1.5c0.6-0.6,1.4-0.9,2.2-0.9h8.8c0.6,0,1,0.4,1,1
				s-0.4,1-1,1h-8.8c-0.3,0-0.6,0.1-0.8,0.3l-1.5,1.5C35.8,35.3,35,35.6,34.2,35.6z"/>
			<path fill="#3A3A3A" d="M26.6,28.2c0.7,0,1.4,0.3,2,0.8l4.6,4.6c0.3,0.3,0.7,0.4,1.1,0.4c0.4,0,0.8-0.2,1.1-0.4l1.5-1.5
				c0.5-0.5,1.2-0.8,2-0.8h8.8c0.3,0,0.6,0.3,0.6,0.6s-0.3,0.6-0.6,0.6h-8.8c-0.4,0-0.8,0.2-1.1,0.4l-1.5,1.5
				c-0.5,0.5-1.2,0.8-2,0.8c-0.7,0-1.4-0.3-2-0.8l-4.6-4.6c-0.3-0.3-0.7-0.4-1.1-0.4s-0.8,0.1-1.1,0.4l-1.9,1.9
				c-0.5,0.5-1.2,0.8-2,0.8h-9.5c-0.3,0-0.6-0.3-0.6-0.6s0.3-0.6,0.6-0.6h9.5c0.4,0,0.8-0.2,1.1-0.4l1.9-1.9
				C25.2,28.4,25.9,28.2,26.6,28.2 M26.6,27.4c-0.9,0-1.8,0.4-2.5,1l-1.9,1.9c-0.1,0.1-0.3,0.2-0.5,0.2h-9.5c-0.8,0-1.4,0.6-1.4,1.4
				s0.6,1.4,1.4,1.4h9.5c0.9,0,1.8-0.4,2.5-1l1.9-1.9c0.1-0.1,0.3-0.2,0.5-0.2s0.4,0.1,0.5,0.2l4.6,4.6c0.7,0.7,1.5,1,2.5,1
				c0.9,0,1.8-0.4,2.5-1l1.5-1.5c0.1-0.1,0.3-0.2,0.5-0.2h8.8c0.8,0,1.4-0.6,1.4-1.4s-0.6-1.4-1.4-1.4h-8.8c-0.9,0-1.8,0.4-2.5,1
				L34.7,33c-0.1,0.1-0.3,0.2-0.5,0.2c-0.2,0-0.4-0.1-0.5-0.2l-4.6-4.6C28.4,27.8,27.5,27.4,26.6,27.4L26.6,27.4z"/>
		</g>
		<circle fill="#BDBDBD" stroke="#3A3A3A" stroke-width="0.75" stroke-miterlimit="10" cx="47.5" cy="31.8" r="4.9"/>
	</g>
</g>
<g id="Noise">
</g>
<g id="Influence">
</g>
<g id="Replicator">
</g>
<g id="Mute">
</g>
<g id="Orient">
</g>
<g id="Flight">
</g>
<g id="ID">
</g>
<g id="Falloff">
</g>
<g id="Offset">
</g>
<g id="Waiter">
</g>
<g id="Curve">
</g>
<g id="Inherit">
</g>
<g id="Points">
</g>
<g id="Visibilty">
</g>
<g id="Distribute">
</g>
<g id="ReproUI">
</g>
</svg>
