<?xml version="1.0" encoding="utf-8"?>
<!-- Generator: Adobe Illustrator 19.2.0, SVG Export Plug-In . SVG Version: 6.00 Build 0)  -->
<svg version="1.1" baseProfile="tiny" xmlns="http://www.w3.org/2000/svg" xmlns:xlink="http://www.w3.org/1999/xlink" x="0px"
	 y="0px" viewBox="0 0 64 64" xml:space="preserve">
<g id="BG" display="none">
	<polygon display="inline" fill="#444444" points="-256.5,-299.7 -256.5,-90.8 -256.5,156.7 -256.5,365.6 284.5,365.6 284.5,156.7 
		284.5,-90.8 284.5,-299.7 	"/>
</g>
<g id="Colour">
</g>
<g id="Time">
</g>
<g id="Breakout">
</g>
<g id="Repro">
</g>
<g id="Python">
</g>
<g id="PaintFX">
</g>
<g id="Explode">
</g>
<g id="SoUP">
</g>
<g id="Maths">
</g>
<g id="Deformer">
</g>
<g id="Spring">
</g>
<g id="Merge">
</g>
<g id="Delay">
</g>
<g id="Symmetry">
</g>
<g id="Audio">
</g>
<g id="Trig">
</g>
<g id="Transform">
	<g>
		<polyline fill="none" stroke="#3A3A3A" stroke-width="0.75" stroke-miterlimit="10" points="56.6,54.3 31,39.5 5.3,54.3 		"/>
		<line fill="#BDBDBD" stroke="#3A3A3A" stroke-width="0.75" stroke-miterlimit="10" x1="31" y1="9.8" x2="31" y2="39.4"/>
		<path fill="#BDBDBD" stroke="#3A3A3A" stroke-width="0.75" stroke-miterlimit="10" d="M34.7,17.2c0,1-1.7,1.9-3.7,1.9
			s-3.7-0.8-3.7-1.9L31,9L34.7,17.2z"/>
		<path fill="#BDBDBD" stroke="#3A3A3A" stroke-width="0.75" stroke-miterlimit="10" d="M10,47.4c0.9-0.5,2.4,0.5,3.5,2.3
			s1.1,3.7,0.2,4.2l-9,0.8L10,47.4z"/>
		<path fill="#BDBDBD" stroke="#3A3A3A" stroke-width="0.75" stroke-miterlimit="10" d="M52.6,47.4c-0.9-0.5-2.4,0.5-3.5,2.3
			s-1.1,3.7-0.2,4.2l9,0.8L52.6,47.4z"/>
		<rect x="27.2" y="35.8" fill="none" stroke="#F15A5B" stroke-width="0.75" stroke-miterlimit="10" width="7.5" height="7.5"/>
		<polygon fill="#FFFFFF" stroke="#3A3A3A" stroke-width="0.75" stroke-miterlimit="10" points="25.7,51.6 30.9,48.6 36.3,51.6 
			31,54.7 		"/>
		<polygon fill="#FFFFFF" stroke="#3A3A3A" stroke-width="0.75" stroke-miterlimit="10" points="39.6,26.6 39.6,32.7 44.9,35.8 
			44.9,29.7 		"/>
		<polygon fill="#FFFFFF" stroke="#3A3A3A" stroke-width="0.75" stroke-miterlimit="10" points="22.4,26.6 22.4,32.7 17.1,35.8 
			17.1,29.7 		"/>
	</g>
</g>
<g id="Random">
</g>
<g id="Initial_State">
</g>
<g id="Trails">
</g>
<g id="Noise">
</g>
<g id="Influence">
</g>
<g id="Replicator">
</g>
<g id="Mute">
</g>
<g id="Orient">
</g>
<g id="Flight">
</g>
<g id="ID">
</g>
<g id="Falloff">
</g>
<g id="Offset">
</g>
<g id="Waiter">
</g>
<g id="Curve">
</g>
<g id="Inherit">
</g>
<g id="Points">
</g>
<g id="Visibilty">
</g>
<g id="Distribute">
</g>
<g id="ReproUI">
</g>
</svg>
