<?xml version="1.0" encoding="utf-8"?>
<!-- Generator: Adobe Illustrator 19.2.0, SVG Export Plug-In . SVG Version: 6.00 Build 0)  -->
<svg version="1.1" baseProfile="tiny" xmlns="http://www.w3.org/2000/svg" xmlns:xlink="http://www.w3.org/1999/xlink" x="0px"
	 y="0px" viewBox="0 0 64 64" xml:space="preserve">
<g id="BG" display="none">
	<polygon display="inline" fill="#444444" points="-120.5,-94.7 -120.5,114.2 -120.5,361.7 -120.5,570.6 420.5,570.6 420.5,361.7 
		420.5,114.2 420.5,-94.7 	"/>
</g>
<g id="Colour">
</g>
<g id="Time">
</g>
<g id="Breakout">
</g>
<g id="Repro">
</g>
<g id="Python">
</g>
<g id="PaintFX">
</g>
<g id="Explode">
</g>
<g id="SoUP">
</g>
<g id="Maths">
</g>
<g id="Deformer">
</g>
<g id="Spring">
</g>
<g id="Merge">
</g>
<g id="Delay">
</g>
<g id="Symmetry">
</g>
<g id="Audio">
</g>
<g id="Trig">
</g>
<g id="Transform">
</g>
<g id="Random">
</g>
<g id="Initial_State">
</g>
<g id="Trails">
</g>
<g id="Noise">
</g>
<g id="Influence">
</g>
<g id="Replicator">
</g>
<g id="Mute">
</g>
<g id="Orient">
</g>
<g id="Flight">
</g>
<g id="ID">
</g>
<g id="Falloff">
</g>
<g id="Offset">
</g>
<g id="Waiter">
</g>
<g id="Curve">
</g>
<g id="Inherit">
</g>
<g id="Points">
</g>
<g id="Visibilty">
	<g>
		<g>
			<polygon fill="#BDBDBD" stroke="#3A3A3A" stroke-width="0.75" stroke-miterlimit="10" points="48.4,17.6 36.5,10.7 24.7,17.6 
				24.7,31.3 36.5,38.1 48.4,31.3 			"/>
			<polyline fill="#BDBDBD" stroke="#3A3A3A" stroke-width="0.75" stroke-miterlimit="10" points="24.7,17.6 36.5,24.4 36.5,38.1 
							"/>
			<line fill="#BDBDBD" stroke="#3A3A3A" stroke-width="0.75" stroke-miterlimit="10" x1="48.4" y1="17.6" x2="36.5" y2="24.4"/>
		</g>
		<g>
			<polygon fill="#BDBDBD" stroke="#3A3A3A" stroke-width="0.75" stroke-miterlimit="10" points="31.8,27 20,20.1 8.1,27 8.1,40.7 
				20,47.5 31.8,40.7 			"/>
			<polyline fill="#BDBDBD" stroke="#3A3A3A" stroke-width="0.75" stroke-miterlimit="10" points="8.1,27 20,33.8 20,47.5 			"/>
			<line fill="#BDBDBD" stroke="#3A3A3A" stroke-width="0.75" stroke-miterlimit="10" x1="31.8" y1="27" x2="20" y2="33.8"/>
		</g>
		<g>
			<g>
				<polygon fill="none" stroke="#F15A5B" stroke-width="0.75" stroke-miterlimit="10" points="54.4,32.4 42.6,25.5 30.7,32.4 
					30.7,46.1 42.6,52.9 54.4,46.1 				"/>
				<polyline fill="none" stroke="#F15A5B" stroke-width="0.75" stroke-miterlimit="10" points="30.7,32.4 42.6,39.2 42.6,52.9 				
					"/>
				<line fill="none" stroke="#F15A5B" stroke-width="0.75" stroke-miterlimit="10" x1="54.4" y1="32.4" x2="42.6" y2="39.2"/>
			</g>
			<line fill="none" stroke="#F15A5B" stroke-width="0.75" stroke-miterlimit="10" x1="42.6" y1="39.2" x2="42.6" y2="25.5"/>
			<line fill="none" stroke="#F15A5B" stroke-width="0.75" stroke-miterlimit="10" x1="42.6" y1="38.7" x2="54.4" y2="46.1"/>
			<line fill="none" stroke="#F15A5B" stroke-width="0.75" stroke-miterlimit="10" x1="30.7" y1="46.1" x2="42.6" y2="38.7"/>
		</g>
	</g>
</g>
<g id="Distribute">
</g>
<g id="ReproUI">
</g>
</svg>
