<?xml version="1.0" encoding="utf-8"?>
<!-- Generator: Adobe Illustrator 19.2.0, SVG Export Plug-In . SVG Version: 6.00 Build 0)  -->
<svg version="1.1" baseProfile="tiny" xmlns="http://www.w3.org/2000/svg" xmlns:xlink="http://www.w3.org/1999/xlink" x="0px"
	 y="0px" viewBox="0 0 64 64" xml:space="preserve">
<g id="BG" display="none">
	<polygon display="inline" fill="#444444" points="-324.5,-299.7 -324.5,-90.8 -324.5,156.7 -324.5,365.6 216.5,365.6 216.5,156.7 
		216.5,-90.8 216.5,-299.7 	"/>
</g>
<g id="Colour">
</g>
<g id="Time">
</g>
<g id="Breakout">
</g>
<g id="Repro">
</g>
<g id="Python">
</g>
<g id="PaintFX">
</g>
<g id="Explode">
</g>
<g id="SoUP">
</g>
<g id="Maths">
</g>
<g id="Deformer">
</g>
<g id="Spring">
</g>
<g id="Merge">
</g>
<g id="Delay">
</g>
<g id="Symmetry">
</g>
<g id="Audio">
</g>
<g id="Trig">
	<g>
		<g>
			<g>
				<path fill="#BDBDBD" d="M31.3,10.1c-0.6,0-1-0.4-1-1V7.6c0-0.6,0.4-1,1-1s1,0.4,1,1v1.5C32.3,9.6,31.8,10.1,31.3,10.1z"/>
				<path fill="#3A3A3A" d="M31.3,7c0.3,0,0.6,0.3,0.6,0.6v1.5c0,0.3-0.3,0.6-0.6,0.6s-0.6-0.3-0.6-0.6V7.6C30.6,7.2,30.9,7,31.3,7
					 M31.3,6.2c-0.8,0-1.4,0.6-1.4,1.4v1.5c0,0.8,0.6,1.4,1.4,1.4s1.4-0.6,1.4-1.4V7.6C32.6,6.8,32,6.2,31.3,6.2L31.3,6.2z"/>
			</g>
			<g>
				<path fill="#BDBDBD" d="M31.3,52.5c-0.6,0-1-0.4-1-1v-3c0-0.6,0.4-1,1-1s1,0.4,1,1v3C32.3,52.1,31.8,52.5,31.3,52.5z M31.3,46.5
					c-0.6,0-1-0.4-1-1v-3c0-0.6,0.4-1,1-1s1,0.4,1,1v3C32.3,46,31.8,46.5,31.3,46.5z M31.3,40.4c-0.6,0-1-0.4-1-1v-3
					c0-0.6,0.4-1,1-1s1,0.4,1,1v3C32.3,40,31.8,40.4,31.3,40.4z M31.3,34.3c-0.6,0-1-0.4-1-1v-3c0-0.6,0.4-1,1-1s1,0.4,1,1v3
					C32.3,33.9,31.8,34.3,31.3,34.3z M31.3,28.3c-0.6,0-1-0.4-1-1v-3c0-0.6,0.4-1,1-1s1,0.4,1,1v3C32.3,27.8,31.8,28.3,31.3,28.3z
					 M31.3,22.2c-0.6,0-1-0.4-1-1v-3c0-0.6,0.4-1,1-1s1,0.4,1,1v3C32.3,21.8,31.8,22.2,31.3,22.2z M31.3,16.2c-0.6,0-1-0.4-1-1v-3
					c0-0.6,0.4-1,1-1s1,0.4,1,1v3C32.3,15.7,31.8,16.2,31.3,16.2z"/>
				<path fill="#3A3A3A" d="M31.3,11.5c0.3,0,0.6,0.3,0.6,0.6v3c0,0.3-0.3,0.6-0.6,0.6s-0.6-0.3-0.6-0.6v-3
					C30.6,11.8,30.9,11.5,31.3,11.5 M31.3,17.6c0.3,0,0.6,0.3,0.6,0.6v3c0,0.3-0.3,0.6-0.6,0.6s-0.6-0.3-0.6-0.6v-3
					C30.6,17.8,30.9,17.6,31.3,17.6 M31.3,23.6c0.3,0,0.6,0.3,0.6,0.6v3c0,0.3-0.3,0.6-0.6,0.6s-0.6-0.3-0.6-0.6v-3
					C30.6,23.9,30.9,23.6,31.3,23.6 M31.3,29.7c0.3,0,0.6,0.3,0.6,0.6v3c0,0.3-0.3,0.6-0.6,0.6s-0.6-0.3-0.6-0.6v-3
					C30.6,30,30.9,29.7,31.3,29.7 M31.3,35.8c0.3,0,0.6,0.3,0.6,0.6v3c0,0.3-0.3,0.6-0.6,0.6s-0.6-0.3-0.6-0.6v-3
					C30.6,36,30.9,35.8,31.3,35.8 M31.3,41.8c0.3,0,0.6,0.3,0.6,0.6v3c0,0.3-0.3,0.6-0.6,0.6s-0.6-0.3-0.6-0.6v-3
					C30.6,42.1,30.9,41.8,31.3,41.8 M31.3,47.9c0.3,0,0.6,0.3,0.6,0.6v3c0,0.3-0.3,0.6-0.6,0.6s-0.6-0.3-0.6-0.6v-3
					C30.6,48.2,30.9,47.9,31.3,47.9 M31.3,10.7c-0.8,0-1.4,0.6-1.4,1.4v3c0,0.8,0.6,1.4,1.4,1.4s1.4-0.6,1.4-1.4v-3
					C32.6,11.4,32,10.7,31.3,10.7L31.3,10.7z M31.3,16.8c-0.8,0-1.4,0.6-1.4,1.4v3c0,0.8,0.6,1.4,1.4,1.4s1.4-0.6,1.4-1.4v-3
					C32.6,17.4,32,16.8,31.3,16.8L31.3,16.8z M31.3,22.9c-0.8,0-1.4,0.6-1.4,1.4v3c0,0.8,0.6,1.4,1.4,1.4s1.4-0.6,1.4-1.4v-3
					C32.6,23.5,32,22.9,31.3,22.9L31.3,22.9z M31.3,28.9c-0.8,0-1.4,0.6-1.4,1.4v3c0,0.8,0.6,1.4,1.4,1.4s1.4-0.6,1.4-1.4v-3
					C32.6,29.6,32,28.9,31.3,28.9L31.3,28.9z M31.3,35c-0.8,0-1.4,0.6-1.4,1.4v3c0,0.8,0.6,1.4,1.4,1.4s1.4-0.6,1.4-1.4v-3
					C32.6,35.6,32,35,31.3,35L31.3,35z M31.3,41.1c-0.8,0-1.4,0.6-1.4,1.4v3c0,0.8,0.6,1.4,1.4,1.4s1.4-0.6,1.4-1.4v-3
					C32.6,41.7,32,41.1,31.3,41.1L31.3,41.1z M31.3,47.1c-0.8,0-1.4,0.6-1.4,1.4v3c0,0.8,0.6,1.4,1.4,1.4s1.4-0.6,1.4-1.4v-3
					C32.6,47.8,32,47.1,31.3,47.1L31.3,47.1z"/>
			</g>
			<g>
				<path fill="#BDBDBD" d="M31.3,57.1c-0.6,0-1-0.4-1-1v-1.5c0-0.6,0.4-1,1-1s1,0.4,1,1v1.5C32.3,56.6,31.8,57.1,31.3,57.1z"/>
				<path fill="#3A3A3A" d="M31.3,54c0.3,0,0.6,0.3,0.6,0.6v1.5c0,0.3-0.3,0.6-0.6,0.6s-0.6-0.3-0.6-0.6v-1.5
					C30.6,54.2,30.9,54,31.3,54 M31.3,53.2c-0.8,0-1.4,0.6-1.4,1.4v1.5c0,0.8,0.6,1.4,1.4,1.4s1.4-0.6,1.4-1.4v-1.5
					C32.6,53.8,32,53.2,31.3,53.2L31.3,53.2z"/>
			</g>
		</g>
		<g>
			<g>
				<path fill="#BDBDBD" d="M54,32.8c-0.6,0-1-0.4-1-1s0.4-1,1-1h1.5c0.6,0,1,0.4,1,1s-0.4,1-1,1H54z"/>
				<path fill="#3A3A3A" d="M55.5,31.2c0.3,0,0.6,0.3,0.6,0.6s-0.3,0.6-0.6,0.6H54c-0.3,0-0.6-0.3-0.6-0.6s0.3-0.6,0.6-0.6H55.5
					 M55.5,30.5H54c-0.8,0-1.4,0.6-1.4,1.4s0.6,1.4,1.4,1.4h1.5c0.8,0,1.4-0.6,1.4-1.4S56.3,30.5,55.5,30.5L55.5,30.5z"/>
			</g>
			<g>
				<path fill="#BDBDBD" d="M47.9,32.8c-0.6,0-1-0.4-1-1s0.4-1,1-1h3c0.6,0,1,0.4,1,1s-0.4,1-1,1H47.9z M41.9,32.8c-0.6,0-1-0.4-1-1
					s0.4-1,1-1h3c0.6,0,1,0.4,1,1s-0.4,1-1,1H41.9z M35.8,32.8c-0.6,0-1-0.4-1-1s0.4-1,1-1h3c0.6,0,1,0.4,1,1s-0.4,1-1,1H35.8z
					 M29.7,32.8c-0.6,0-1-0.4-1-1s0.4-1,1-1h3c0.6,0,1,0.4,1,1s-0.4,1-1,1H29.7z M23.7,32.8c-0.6,0-1-0.4-1-1s0.4-1,1-1h3
					c0.6,0,1,0.4,1,1s-0.4,1-1,1H23.7z M17.6,32.8c-0.6,0-1-0.4-1-1s0.4-1,1-1h3c0.6,0,1,0.4,1,1s-0.4,1-1,1H17.6z M11.5,32.8
					c-0.6,0-1-0.4-1-1s0.4-1,1-1h3c0.6,0,1,0.4,1,1s-0.4,1-1,1H11.5z"/>
				<path fill="#3A3A3A" d="M51,31.2c0.3,0,0.6,0.3,0.6,0.6s-0.3,0.6-0.6,0.6h-3c-0.3,0-0.6-0.3-0.6-0.6s0.3-0.6,0.6-0.6H51
					 M44.9,31.2c0.3,0,0.6,0.3,0.6,0.6s-0.3,0.6-0.6,0.6h-3c-0.3,0-0.6-0.3-0.6-0.6s0.3-0.6,0.6-0.6H44.9 M38.8,31.2
					c0.3,0,0.6,0.3,0.6,0.6s-0.3,0.6-0.6,0.6h-3c-0.3,0-0.6-0.3-0.6-0.6s0.3-0.6,0.6-0.6H38.8 M32.8,31.2c0.3,0,0.6,0.3,0.6,0.6
					s-0.3,0.6-0.6,0.6h-3c-0.3,0-0.6-0.3-0.6-0.6s0.3-0.6,0.6-0.6H32.8 M26.7,31.2c0.3,0,0.6,0.3,0.6,0.6s-0.3,0.6-0.6,0.6h-3
					c-0.3,0-0.6-0.3-0.6-0.6s0.3-0.6,0.6-0.6H26.7 M20.6,31.2c0.3,0,0.6,0.3,0.6,0.6s-0.3,0.6-0.6,0.6h-3c-0.3,0-0.6-0.3-0.6-0.6
					s0.3-0.6,0.6-0.6H20.6 M14.6,31.2c0.3,0,0.6,0.3,0.6,0.6s-0.3,0.6-0.6,0.6h-3c-0.3,0-0.6-0.3-0.6-0.6s0.3-0.6,0.6-0.6H14.6
					 M51,30.5h-3c-0.8,0-1.4,0.6-1.4,1.4s0.6,1.4,1.4,1.4h3c0.8,0,1.4-0.6,1.4-1.4S51.7,30.5,51,30.5L51,30.5z M44.9,30.5h-3
					c-0.8,0-1.4,0.6-1.4,1.4s0.6,1.4,1.4,1.4h3c0.8,0,1.4-0.6,1.4-1.4S45.7,30.5,44.9,30.5L44.9,30.5z M38.8,30.5h-3
					c-0.8,0-1.4,0.6-1.4,1.4s0.6,1.4,1.4,1.4h3c0.8,0,1.4-0.6,1.4-1.4S39.6,30.5,38.8,30.5L38.8,30.5z M32.8,30.5h-3
					c-0.8,0-1.4,0.6-1.4,1.4s0.6,1.4,1.4,1.4h3c0.8,0,1.4-0.6,1.4-1.4S33.5,30.5,32.8,30.5L32.8,30.5z M26.7,30.5h-3
					c-0.8,0-1.4,0.6-1.4,1.4s0.6,1.4,1.4,1.4h3c0.8,0,1.4-0.6,1.4-1.4S27.5,30.5,26.7,30.5L26.7,30.5z M20.6,30.5h-3
					c-0.8,0-1.4,0.6-1.4,1.4s0.6,1.4,1.4,1.4h3c0.8,0,1.4-0.6,1.4-1.4S21.4,30.5,20.6,30.5L20.6,30.5z M14.6,30.5h-3
					c-0.8,0-1.4,0.6-1.4,1.4s0.6,1.4,1.4,1.4h3c0.8,0,1.4-0.6,1.4-1.4S15.3,30.5,14.6,30.5L14.6,30.5z"/>
			</g>
			<g>
				<path fill="#BDBDBD" d="M7,32.8c-0.6,0-1-0.4-1-1s0.4-1,1-1h1.5c0.6,0,1,0.4,1,1s-0.4,1-1,1H7z"/>
				<path fill="#3A3A3A" d="M8.5,31.2c0.3,0,0.6,0.3,0.6,0.6s-0.3,0.6-0.6,0.6H7c-0.3,0-0.6-0.3-0.6-0.6s0.3-0.6,0.6-0.6H8.5
					 M8.5,30.5H7c-0.8,0-1.4,0.6-1.4,1.4s0.6,1.4,1.4,1.4h1.5c0.8,0,1.4-0.6,1.4-1.4S9.3,30.5,8.5,30.5L8.5,30.5z"/>
			</g>
		</g>
		<g>
			<path fill="#F15A5B" d="M54.1,44.9c-3.2,0-4.3-5.7-5.6-12.4c-0.6-2.8-1.1-5.7-1.8-7.8C45.7,22,45,21.9,45,21.9s-0.7,0-1.6,2.8
				c-0.7,2.1-1.3,5-1.8,7.8c-1.3,6.7-2.4,12.4-5.6,12.4c-3.2,0-4.3-5.7-5.6-12.4c-0.6-2.8-1.1-5.7-1.8-7.8c-0.9-2.8-1.6-2.8-1.6-2.8
				s-0.7,0-1.6,2.8c-0.7,2.1-1.3,5-1.8,7.8c-1.3,6.7-2.4,12.4-5.6,12.4c-3.2,0-4.3-5.8-5.6-12.4c-0.6-2.8-1.1-5.7-1.8-7.8
				c-0.9-2.8-1.6-2.8-1.6-2.8c-0.6,0-1.1-0.5-1.1-1.1s0.5-1.1,1.1-1.1c3.2,0,4.3,5.7,5.6,12.4c0.6,2.8,1.1,5.7,1.8,7.8
				c0.9,2.8,1.6,2.8,1.6,2.8s0.7,0,1.6-2.8c0.7-2.1,1.3-5,1.8-7.8c1.3-6.7,2.4-12.4,5.6-12.4s4.3,5.8,5.6,12.4
				c0.6,2.8,1.1,5.7,1.8,7.8c0.9,2.8,1.6,2.8,1.6,2.8s0.7,0,1.6-2.8c0.7-2.1,1.3-5,1.8-7.8c1.3-6.7,2.4-12.4,5.6-12.4
				c3.2,0,4.3,5.8,5.6,12.4c0.6,2.8,1.1,5.7,1.8,7.8c0.9,2.8,1.6,2.8,1.6,2.8c0.6,0,1.1,0.5,1.1,1.1S54.7,44.9,54.1,44.9z"/>
			<path fill="#3A3A3A" d="M26.9,20c2.9,0,4,5.6,5.3,12.1c0.6,2.8,1.1,5.7,1.8,7.8c0.9,2.7,1.6,3.1,2,3.1c0.4,0,1.1-0.4,2-3.1
				c0.7-2.1,1.3-5,1.8-7.8C41,25.7,42.1,20,45,20s4,5.6,5.3,12.1c0.6,2.8,1.1,5.7,1.8,7.8c0.9,2.7,1.6,3.1,2,3.1
				c0.4,0,0.8,0.3,0.8,0.8s-0.3,0.8-0.8,0.8c-2.9,0-4-5.6-5.3-12.1c-0.6-2.8-1.1-5.7-1.8-7.8c-0.9-2.7-1.6-3.1-2-3.1s-1.1,0.4-2,3.1
				c-0.7,2.1-1.3,5-1.8,7.8c-1.3,6.5-2.4,12.1-5.3,12.1c-2.9,0-4-5.6-5.3-12.1c-0.6-2.8-1.1-5.7-1.8-7.8c-0.9-2.7-1.6-3.1-2-3.1
				c-0.4,0-1.1,0.4-2,3.1c-0.7,2.1-1.3,5-1.8,7.8c-1.3,6.5-2.4,12.1-5.3,12.1c-2.9,0-4-5.6-5.3-12.1c-0.6-2.8-1.1-5.7-1.8-7.8
				c-0.9-2.7-1.6-3.1-2-3.1c-0.4,0-0.8-0.3-0.8-0.8S8.3,20,8.7,20c2.9,0,4,5.6,5.3,12.1c0.6,2.8,1.1,5.7,1.8,7.8
				c0.9,2.7,1.6,3.1,2,3.1c0.4,0,1.1-0.4,2-3.1c0.7-2.1,1.3-5,1.8-7.8C22.9,25.7,24,20,26.9,20 M26.9,19.3L26.9,19.3
				c-3.5,0-4.6,5.6-6,12.7c-0.5,2.8-1.1,5.7-1.8,7.7c-0.6,1.9-1.1,2.4-1.3,2.5c-0.2-0.1-0.6-0.6-1.3-2.5c-0.7-2.1-1.2-4.9-1.8-7.7
				c-1.4-7.1-2.5-12.7-6-12.7c-0.8,0-1.5,0.7-1.5,1.5c0,0.8,0.6,1.5,1.5,1.5c0.1,0.1,0.6,0.4,1.3,2.6c0.7,2.1,1.2,4.9,1.8,7.7
				c1.4,7.1,2.5,12.7,6,12.7c3.5,0,4.6-5.6,6-12.7c0.5-2.8,1.1-5.7,1.8-7.7c0.6-1.9,1.1-2.4,1.3-2.5c0.2,0.1,0.6,0.6,1.3,2.5
				c0.7,2.1,1.2,4.9,1.8,7.7c1.4,7.1,2.5,12.7,6,12.7c3.5,0,4.6-5.6,6-12.7c0.5-2.8,1.1-5.7,1.8-7.7c0.6-1.9,1.1-2.4,1.3-2.5
				c0.2,0.1,0.6,0.6,1.3,2.5c0.7,2.1,1.2,4.9,1.8,7.7c1.4,7.1,2.5,12.7,6,12.7c0.8,0,1.5-0.7,1.5-1.5c0-0.8-0.6-1.5-1.5-1.5
				c-0.1-0.1-0.6-0.4-1.3-2.6c-0.7-2.1-1.2-4.9-1.8-7.7c-1.4-7.1-2.5-12.7-6-12.7c-3.5,0-4.6,5.6-6,12.7c-0.5,2.8-1.1,5.7-1.8,7.7
				c-0.6,1.9-1.1,2.4-1.3,2.5c-0.2-0.1-0.6-0.6-1.3-2.5c-0.7-2.1-1.2-4.9-1.8-7.7C31.5,24.9,30.4,19.3,26.9,19.3L26.9,19.3z"/>
		</g>
	</g>
</g>
<g id="Transform">
</g>
<g id="Random">
</g>
<g id="Initial_State">
</g>
<g id="Trails">
</g>
<g id="Noise">
</g>
<g id="Influence">
</g>
<g id="Replicator">
</g>
<g id="Mute">
</g>
<g id="Orient">
</g>
<g id="Flight">
</g>
<g id="ID">
</g>
<g id="Falloff">
</g>
<g id="Offset">
</g>
<g id="Waiter">
</g>
<g id="Curve">
</g>
<g id="Inherit">
</g>
<g id="Points">
</g>
<g id="Visibilty">
</g>
<g id="Distribute">
</g>
<g id="ReproUI">
</g>
</svg>
